<svg xmlns="http://www.w3.org/2000/svg" width="41" height="42" viewBox="0 0 41 42" fill="none">
  <!-- <rect width="40.4067" height="40.4067" transform="translate(0.361328 0.669922)" fill="white"/> -->
  <path d="M18.6211 20.6497C18.6211 20.6497 20.5333 20.5043 20.5333 18.2141C20.5333 15.9259 19.2364 14.7979 17.254 14.7979L10.4629 14.7871V27.433H17.412C17.412 27.433 20.8865 27.543 20.8865 23.6392C20.8865 23.6392 21.1417 20.6497 18.6211 20.6497ZM12.9898 16.684H16.4644C16.4644 16.684 17.6533 16.7036 17.6533 18.2464C17.6533 19.8455 16.4644 19.8455 16.4644 19.8455H12.9898V16.684ZM16.7802 25.5361H12.9898V21.7423H16.7802C16.7802 21.7423 18.6754 21.7619 18.6754 23.6392C18.6754 25.5165 17.0531 25.5361 16.7802 25.5361Z" fill="#fff"/>
  <path d="M26.2556 17.9473C21.5094 17.9473 21.5176 22.6895 21.5176 22.6895C21.5176 22.6895 21.2017 27.4317 26.2556 27.4317C26.2556 27.4317 30.6777 27.4317 30.6777 23.6379H28.1508C28.1508 23.6379 28.1508 25.5348 26.2556 25.5348C26.2556 25.5348 24.3604 25.5348 24.3604 23.0056C24.3604 23.0056 29.4142 23.0056 30.6777 23.0056C30.6777 21.741 30.6777 17.9473 26.2556 17.9473ZM24.3604 21.741C24.3604 21.741 24.3187 19.8441 26.2556 19.8441C28.1918 19.8441 28.1508 21.741 28.1508 21.741H24.3604Z" fill="#fff"/>
  <path d="M28.7824 16.0508H23.7285V17.3154H28.7824V16.0508Z" fill="#fff"/>
</svg>