<svg xmlns="http://www.w3.org/2000/svg" width="25" height="25" viewBox="0 0 25 25" fill="none">
  <path d="M12.8175 24.9182C6.12713 24.9182 0.681641 19.4728 0.681641 12.7824C0.681641 6.09197 6.12713 0.646484 12.8175 0.646484C19.5079 0.646484 24.9534 6.09197 24.9534 12.7824C24.9534 19.4728 19.5079 24.9182 12.8175 24.9182ZM12.8175 2.60388C7.2037 2.60388 2.63904 7.16854 2.63904 12.7824C2.63904 18.3962 7.2037 22.9608 12.8175 22.9608C18.4313 22.9608 22.996 18.3962 22.996 12.7824C22.996 7.16854 18.4313 2.60388 12.8175 2.60388Z" fill="#fff"/>
  <path d="M9.29406 11.5884C6.99998 11.5884 4.518 11.2479 1.87159 10.5589C1.34701 10.4218 1.03383 9.88942 1.17084 9.36484C1.30786 8.84026 1.84028 8.52707 2.36486 8.66409C10.3824 10.7468 16.6578 9.42748 20.51 4.85499C20.8584 4.44394 21.4769 4.38913 21.888 4.73755C22.3029 5.08596 22.3538 5.7045 22.0054 6.11556C18.948 9.74458 14.626 11.5884 9.29406 11.5884Z" fill="#fff"/>
  <path d="M4.40066 21.0855C4.1736 21.0855 3.95046 21.0072 3.76646 20.8506C3.35541 20.4983 3.30843 19.8797 3.65685 19.4687C9.38028 12.7783 16.7871 11.1889 23.9786 15.1154C24.4523 15.3738 24.6284 15.9689 24.3701 16.4426C24.1117 16.9162 23.5166 17.0924 23.0429 16.834C14.4069 12.1245 8.12363 17.2607 5.14447 20.7449C4.95264 20.9681 4.67861 21.0855 4.40066 21.0855Z" fill="#fff"/>
  <path d="M16.025 24.4491C15.9898 24.4491 15.9546 24.4491 15.9193 24.4452C15.383 24.3865 14.9954 23.9049 15.0542 23.3647C15.8175 16.365 14.0167 9.30665 9.70655 2.37746C9.42077 1.91942 9.5617 1.31655 10.0197 1.03077C10.4778 0.744985 11.0806 0.885917 11.3664 1.34395C15.9154 8.65288 17.8102 16.1341 16.9998 23.58C16.9411 24.0811 16.5183 24.4491 16.025 24.4491Z" fill="#fff"/>
</svg>