<svg xmlns="http://www.w3.org/2000/svg" width="21" height="22" viewBox="0 0 21 22" fill="none">
  <path d="M7.44996 10.9251C7.44996 9.06385 8.95795 7.55461 10.8187 7.55461C12.6794 7.55461 14.1882 9.06385 14.1882 10.9251C14.1882 12.7863 12.6794 14.2956 10.8187 14.2956C8.95795 14.2956 7.44996 12.7863 7.44996 10.9251ZM5.62847 10.9251C5.62847 13.7925 7.95211 16.1168 10.8187 16.1168C13.6852 16.1168 16.0089 13.7925 16.0089 10.9251C16.0089 8.05772 13.6852 5.7334 10.8187 5.7334C7.95211 5.7334 5.62847 8.05772 5.62847 10.9251ZM15.0014 5.52755C15.0013 5.76751 15.0723 6.00212 15.2055 6.20169C15.3387 6.40127 15.5281 6.55685 15.7497 6.64877C15.9713 6.74069 16.2152 6.76481 16.4505 6.71809C16.6858 6.67137 16.902 6.55591 17.0717 6.38629C17.2414 6.21668 17.357 6.00054 17.4039 5.76521C17.4507 5.52988 17.4268 5.28592 17.3351 5.06418C17.2434 4.84245 17.088 4.6529 16.8886 4.5195C16.6892 4.38611 16.4547 4.31485 16.2148 4.31476H16.2143C15.8928 4.31491 15.5844 4.44272 15.357 4.67011C15.1296 4.89751 15.0017 5.2059 15.0014 5.52755V5.52755ZM6.73514 19.1549C5.74968 19.11 5.21405 18.9458 4.8581 18.8071C4.38619 18.6233 4.04948 18.4045 3.69547 18.0508C3.34145 17.6972 3.12232 17.3607 2.93941 16.8887C2.80065 16.5328 2.6365 15.9968 2.5917 15.0111C2.5427 13.9453 2.53292 13.6252 2.53292 10.9252C2.53292 8.22515 2.54351 7.9059 2.5917 6.83926C2.63658 5.85352 2.80194 5.31862 2.93941 4.96168C3.12313 4.48963 3.34194 4.15283 3.69547 3.79871C4.04899 3.4446 4.38538 3.2254 4.8581 3.04243C5.21389 2.90364 5.74968 2.73944 6.73514 2.69463C7.80058 2.64561 8.12063 2.63582 10.8187 2.63582C13.5167 2.63582 13.8371 2.64642 14.9034 2.69463C15.8889 2.73952 16.4236 2.90493 16.7804 3.04243C17.2523 3.2254 17.5891 3.44508 17.9431 3.79871C18.2971 4.15234 18.5154 4.48963 18.6991 4.96168C18.8379 5.31757 19.002 5.85352 19.0468 6.83926C19.0958 7.9059 19.1056 8.22515 19.1056 10.9252C19.1056 13.6252 19.0958 13.9445 19.0468 15.0111C19.002 15.9968 18.837 16.5326 18.6991 16.8887C18.5154 17.3607 18.2966 17.6975 17.9431 18.0508C17.5895 18.4041 17.2523 18.6233 16.7804 18.8071C16.4246 18.9459 15.8889 19.1101 14.9034 19.1549C13.838 19.2039 13.5179 19.2137 10.8187 19.2137C8.11941 19.2137 7.80025 19.2039 6.73514 19.1549V19.1549ZM6.65145 0.875683C5.57542 0.9247 4.84014 1.09537 4.19802 1.3453C3.53301 1.60341 2.97005 1.94968 2.4075 2.5115C1.84494 3.07333 1.49966 3.63734 1.24163 4.30254C0.99177 4.94526 0.821152 5.68034 0.77215 6.75668C0.722339 7.83472 0.710938 8.17937 0.710938 10.9251C0.710938 13.6708 0.722339 14.0155 0.77215 15.0935C0.821152 16.1699 0.99177 16.9049 1.24163 17.5476C1.49966 18.2124 1.84502 18.7771 2.4075 19.3387C2.96997 19.9003 3.53301 20.2461 4.19802 20.5049C4.84136 20.7548 5.57542 20.9255 6.65145 20.9745C7.72974 21.0235 8.07373 21.0357 10.8187 21.0357C13.5636 21.0357 13.9081 21.0243 14.9859 20.9745C16.062 20.9255 16.7968 20.7548 17.4393 20.5049C18.1039 20.2461 18.6673 19.9005 19.2298 19.3387C19.7924 18.7769 20.1369 18.2124 20.3957 17.5476C20.6456 16.9049 20.817 16.1699 20.8652 15.0935C20.9142 14.0147 20.9256 13.6708 20.9256 10.9251C20.9256 8.17937 20.9142 7.83472 20.8652 6.75668C20.8162 5.68026 20.6456 4.94485 20.3957 4.30254C20.1369 3.63775 19.7915 3.07422 19.2298 2.5115C18.6682 1.94879 18.1039 1.60341 17.4401 1.3453C16.7968 1.09537 16.0619 0.923891 14.9867 0.875683C13.909 0.826667 13.5644 0.814453 10.8195 0.814453C8.07454 0.814453 7.72974 0.825858 6.65145 0.875683Z" fill="#fff"/>
  <path d="M7.44996 10.9251C7.44996 9.06385 8.95795 7.55461 10.8187 7.55461C12.6794 7.55461 14.1882 9.06385 14.1882 10.9251C14.1882 12.7863 12.6794 14.2956 10.8187 14.2956C8.95795 14.2956 7.44996 12.7863 7.44996 10.9251ZM5.62847 10.9251C5.62847 13.7925 7.95211 16.1168 10.8187 16.1168C13.6852 16.1168 16.0089 13.7925 16.0089 10.9251C16.0089 8.05772 13.6852 5.7334 10.8187 5.7334C7.95211 5.7334 5.62847 8.05772 5.62847 10.9251ZM15.0014 5.52755C15.0013 5.76751 15.0723 6.00212 15.2055 6.20169C15.3387 6.40127 15.5281 6.55685 15.7497 6.64877C15.9713 6.74069 16.2152 6.76481 16.4505 6.71809C16.6858 6.67137 16.902 6.55591 17.0717 6.38629C17.2414 6.21668 17.357 6.00054 17.4039 5.76521C17.4507 5.52988 17.4268 5.28592 17.3351 5.06418C17.2434 4.84245 17.088 4.6529 16.8886 4.5195C16.6892 4.38611 16.4547 4.31485 16.2148 4.31476H16.2143C15.8928 4.31491 15.5844 4.44272 15.357 4.67011C15.1296 4.89751 15.0017 5.2059 15.0014 5.52755V5.52755ZM6.73514 19.1549C5.74968 19.11 5.21405 18.9458 4.8581 18.8071C4.38619 18.6233 4.04948 18.4045 3.69547 18.0508C3.34145 17.6972 3.12232 17.3607 2.93941 16.8887C2.80065 16.5328 2.6365 15.9968 2.5917 15.0111C2.5427 13.9453 2.53292 13.6252 2.53292 10.9252C2.53292 8.22515 2.54351 7.9059 2.5917 6.83926C2.63658 5.85352 2.80194 5.31862 2.93941 4.96168C3.12313 4.48963 3.34194 4.15283 3.69547 3.79871C4.04899 3.4446 4.38538 3.2254 4.8581 3.04243C5.21389 2.90364 5.74968 2.73944 6.73514 2.69463C7.80058 2.64561 8.12063 2.63582 10.8187 2.63582C13.5167 2.63582 13.8371 2.64642 14.9034 2.69463C15.8889 2.73952 16.4236 2.90493 16.7804 3.04243C17.2523 3.2254 17.5891 3.44508 17.9431 3.79871C18.2971 4.15234 18.5154 4.48963 18.6991 4.96168C18.8379 5.31757 19.002 5.85352 19.0468 6.83926C19.0958 7.9059 19.1056 8.22515 19.1056 10.9252C19.1056 13.6252 19.0958 13.9445 19.0468 15.0111C19.002 15.9968 18.837 16.5326 18.6991 16.8887C18.5154 17.3607 18.2966 17.6975 17.9431 18.0508C17.5895 18.4041 17.2523 18.6233 16.7804 18.8071C16.4246 18.9459 15.8889 19.1101 14.9034 19.1549C13.838 19.2039 13.5179 19.2137 10.8187 19.2137C8.11941 19.2137 7.80025 19.2039 6.73514 19.1549V19.1549ZM6.65145 0.875683C5.57542 0.9247 4.84014 1.09537 4.19802 1.3453C3.53301 1.60341 2.97005 1.94968 2.4075 2.5115C1.84494 3.07333 1.49966 3.63734 1.24163 4.30254C0.99177 4.94526 0.821152 5.68034 0.77215 6.75668C0.722339 7.83472 0.710938 8.17937 0.710938 10.9251C0.710938 13.6708 0.722339 14.0155 0.77215 15.0935C0.821152 16.1699 0.99177 16.9049 1.24163 17.5476C1.49966 18.2124 1.84502 18.7771 2.4075 19.3387C2.96997 19.9003 3.53301 20.2461 4.19802 20.5049C4.84136 20.7548 5.57542 20.9255 6.65145 20.9745C7.72974 21.0235 8.07373 21.0357 10.8187 21.0357C13.5636 21.0357 13.9081 21.0243 14.9859 20.9745C16.062 20.9255 16.7968 20.7548 17.4393 20.5049C18.1039 20.2461 18.6673 19.9005 19.2298 19.3387C19.7924 18.7769 20.1369 18.2124 20.3957 17.5476C20.6456 16.9049 20.817 16.1699 20.8652 15.0935C20.9142 14.0147 20.9256 13.6708 20.9256 10.9251C20.9256 8.17937 20.9142 7.83472 20.8652 6.75668C20.8162 5.68026 20.6456 4.94485 20.3957 4.30254C20.1369 3.63775 19.7915 3.07422 19.2298 2.5115C18.6682 1.94879 18.1039 1.60341 17.4401 1.3453C16.7968 1.09537 16.0619 0.923891 14.9867 0.875683C13.909 0.826667 13.5644 0.814453 10.8195 0.814453C8.07454 0.814453 7.72974 0.825858 6.65145 0.875683Z" fill="#fff"/>
</svg>