<svg xmlns="http://www.w3.org/2000/svg" width="18" height="18" viewBox="0 0 18 18" fill="none">
  <path d="M4.53763 17.0614V6.14641H0.912874V17.0614H4.53801H4.53763ZM2.72601 4.65641C3.98977 4.65641 4.77655 3.81827 4.77655 2.77083C4.75289 1.69952 3.98977 0.884766 2.75004 0.884766C1.50946 0.884766 0.699219 1.69952 0.699219 2.77073C0.699219 3.81817 1.48571 4.65632 2.70226 4.65632H2.72573L2.72601 4.65641ZM6.54398 17.0614H10.1685V10.9666C10.1685 10.6409 10.1921 10.3142 10.2879 10.0815C10.5498 9.42948 11.1462 8.75451 12.1477 8.75451C13.459 8.75451 13.9839 9.75536 13.9839 11.2228V17.0614H17.6083V10.8031C17.6083 7.45061 15.8203 5.89052 13.4355 5.89052C11.4804 5.89052 10.6217 6.98427 10.1446 7.72923H10.1687V6.14679H6.54417C6.59148 7.17075 6.54389 17.0618 6.54389 17.0618L6.54398 17.0614Z" fill="#fff"/>
</svg>