<svg xmlns="http://www.w3.org/2000/svg" width="41" height="42" viewBox="0 0 41 42" fill="none">
  <!-- <rect width="40.4067" height="40.4067" transform="translate(0.232422 0.669922)" fill="white"/> -->
  <path d="M10.334 30.2271L11.7835 24.8374C10.6145 22.7378 10.2431 20.2878 10.7375 17.9369C11.2318 15.586 12.5588 13.4919 14.4748 12.0389C16.3909 10.5859 18.7675 9.87151 21.1687 10.0267C23.5698 10.182 25.8343 11.1964 27.5466 12.884C29.259 14.5715 30.3044 16.819 30.4909 19.2139C30.6774 21.6088 29.9926 23.9905 28.5622 25.9221C27.1317 27.8536 25.0515 29.2054 22.7033 29.7293C20.355 30.2532 17.8963 29.9141 15.7783 28.7743L10.334 30.2271ZM16.0408 26.7574L16.3776 26.9568C17.9117 27.8646 19.7035 28.2403 21.4738 28.0253C23.2441 27.8103 24.8935 27.0167 26.1648 25.7681C27.4362 24.5196 28.2581 22.8862 28.5025 21.1226C28.747 19.359 28.4002 17.5642 27.5162 16.0179C26.6323 14.4716 25.2607 13.2607 23.6154 12.5738C21.9701 11.887 20.1435 11.7627 18.4201 12.2205C16.6967 12.6783 15.1734 13.6924 14.0875 15.1048C13.0017 16.5171 12.4143 18.2484 12.417 20.0288C12.4155 21.505 12.8245 22.9527 13.5983 24.2107L13.8095 24.5582L12.9991 27.5665L16.0408 26.7574Z" fill="#fff"/>
  <path fill-rule="evenodd" clip-rule="evenodd" d="M24.213 21.4129C24.0156 21.254 23.7845 21.1421 23.5372 21.0858C23.29 21.0296 23.0331 21.0304 22.7862 21.0882C22.4153 21.242 22.1756 21.8231 21.9359 22.1137C21.8854 22.1834 21.8111 22.2322 21.7271 22.2511C21.643 22.27 21.5549 22.2576 21.4794 22.2163C20.1213 21.6852 18.983 20.7114 18.2493 19.453C18.1867 19.3745 18.1571 19.2748 18.1667 19.1749C18.1763 19.075 18.2243 18.9827 18.3007 18.9175C18.568 18.6533 18.7643 18.326 18.8713 17.966C18.8951 17.5689 18.804 17.1733 18.6088 16.8265C18.4579 16.3403 18.1708 15.9073 17.7813 15.5788C17.5805 15.4886 17.3577 15.4583 17.14 15.4917C16.9223 15.5251 16.7189 15.6206 16.5544 15.7668C16.2687 16.0128 16.042 16.3197 15.8909 16.6648C15.7398 17.0099 15.6681 17.3845 15.6812 17.7609C15.6821 17.9723 15.7089 18.1827 15.7611 18.3876C15.8936 18.8798 16.0974 19.3501 16.366 19.7835C16.5598 20.1155 16.7713 20.4369 16.9995 20.7463C17.7411 21.7627 18.6734 22.6257 19.7445 23.2874C20.282 23.6236 20.8565 23.897 21.4566 24.1021C22.0799 24.3842 22.7682 24.4925 23.4482 24.4155C23.8357 24.3569 24.2028 24.2042 24.5173 23.9707C24.8318 23.7372 25.0839 23.4302 25.2516 23.0766C25.3501 22.863 25.38 22.6241 25.3372 22.3929C25.2345 21.92 24.601 21.6408 24.213 21.4129Z" fill="#fff"/>
</svg>